<svg xmlns="http://www.w3.org/2000/svg" viewBox="0 0 233.9 306"><defs><style>.cls-1,.cls-2,.cls-3{fill:none}.cls-2{stroke:#a8b1be}.cls-2,.cls-3,.cls-7,.cls-8{stroke-miterlimit:10}.cls-2,.cls-3,.cls-8{stroke-width:.1px}.cls-10,.cls-11{fill:#4b787f}.cls-12{fill:#f2f4f7}.cls-13{fill:#a6aaad}.cls-14{fill:#5b5b5a}.cls-3,.cls-7,.cls-8{stroke:#cfd8dc}.cls-7{stroke-width:.3px}.cls-18{fill:#249e6f}.cls-19{fill:#e3e3e3}.cls-20{fill:#727272}.cls-22{fill:#707070}.cls-23{fill:#767777}.cls-24{fill:#b5c0c1}.cls-25{fill:#b5b5b5}.cls-27{fill:#1f2023}.cls-30{fill:#1c1c1c}.cls-31{fill:#7a7a7a}.cls-32,.cls-7,.cls-8{fill:#ebebeb}.cls-33{fill:#a1a1a1}.cls-34,.cls-36{fill:#818282}.cls-11,.cls-34{isolation:isolate}.cls-34{opacity:.4}.cls-38{fill:#3a3c42}.cls-40{fill:#f3f1ee}.cls-42{fill:#3a3a3a}.cls-43{fill:#abb8b9}.cls-44{fill:#606060}.cls-47{fill:#649ea8}.cls-48{fill:#16945a}.cls-49{fill:#939c9c}.cls-50{fill:#909191}.cls-52{fill:#a4afb0}.cls-53{fill:#fff}.cls-54{fill:#262626}.cls-57{fill:#548b91}.cls-60{fill:#e75353}.cls-61{fill:#666}.cls-63{fill:#bababa}.cls-65{fill:#e03030}.cls-67{fill:#ab1a1f}.cls-68{fill:#8a8a8a}.cls-69{fill:#b3b3b3}.cls-72{fill:#0a7740}.cls-73{fill:#d6dfea}.cls-74{fill:#c0c8c9}.cls-75{fill:#54818c}.cls-77{fill:#124a4f}.cls-78{fill:#95999c}.cls-81{fill:#494343}.cls-82{fill:#333}.cls-83{fill:#118254}.cls-84{fill:#c8c9c9}.cls-85{fill:#3c5c75}.cls-86{fill:#a0a0a1}.cls-11{opacity:.6}.cls-88{fill:#a0a1a1}.cls-89{fill:#afbccc}.cls-91{fill:#cfcfcf}.cls-92{fill:#2e2f35}.cls-94{fill:#eaeaeb}.cls-95{fill:#686868}</style></defs><g id="_레이어_1" data-name="레이어_1"><path style="fill:#a0baea" d="M.3-.4h234.5v306.7H.3z"/><g id="_레이어_1-2"><g id="_레이어_1-2-2"><g id="_레이어_1-2-2-2" data-name="_레이어_1-2-2"><path class="cls-92" d="M150.1 272.5h40v10.8h-40z"/><path style="fill:#acb4b5" d="M120.9 46.1h6.1v41h-6.1z"/><path class="cls-47" d="M96.3 240.7H128v40.5H96.3z"/><path class="cls-10" d="M64.6 239.1h31.7v42.2H64.6z"/><path class="cls-74" d="M51 160.6v62.1h27.7V91.9H51v68.7z"/><path class="cls-36" d="M109.5 119.8h42v41.8h-42z"/><path style="fill:#bec8ca" d="M124.8 48.9h3.5v32.8h-3.5z"/><path style="fill:#abb6b9" d="M58.1 48.9h3.5v43h-3.5z"/><path class="cls-40" d="M121.7 81.7h6.3v39.5h-6.3zM117.3 48.9h4.4v72.3h-4.4zM128.2 48.7h48.4v72.6h-48.4z"/><path class="cls-74" d="M117.3 87V48.9H64.5v72.6h52.8V87z"/><path style="fill:#48757c" d="M134.1 281.4V241.5h-11.3v39.9h11.3z"/><path class="cls-75" d="M140.5 281.4V241.5h-6.1v39.9h6.1z"/><path class="cls-40" d="M163.1 48.9V248.8h15.2V48.9h-15.2z"/><path class="cls-32" d="M170.7 48.9V248.8h4V48.9h-4z"/><path class="cls-8" d="M163.3 48.9v190.8h3.9V48.9h-3.9z"/><path class="cls-32" d="M155.3 48.9v72.6h3.9V48.9h-3.9zM147.4 48.9v72.6h4V48.9h-4zM139.6 48.9v72.6h3.9V48.9h-3.9z"/><path style="fill:#c4c8ca" d="M151.5 121.5V240.9h11.6V121.5h-11.6z"/><path class="cls-92" d="M147.8 241.4h44.4v37.2h-44.4z"/><path class="cls-38" d="m212 241.8-22.1.1v3.4h5.7v2.2h-5.7v.8h5.4v2.1l-5.4.1v.7h4.9v2.2h-4.9l.1.8 7.4-.1v2.2l-7.4.1v.7h4.9v2.2H190v.7h5.3v2.2l-5.3.1.2 16.2 22-.1-.2-36.6z"/><path class="cls-67" d="M187.9 245.2h2.1v2.2h-2.1z"/><path class="cls-65" d="M190 245.2h6.4v2.2H190z"/><path class="cls-67" d="M187.9 248.2h2.1v2.2h-2.1z"/><path class="cls-65" d="M190 248.2h5.9v2.2H190z"/><path class="cls-67" d="M187.9 251.1h2.1v2.2h-2.1z"/><path class="cls-65" d="M190 251.1h5.3v2.2H190z"/><path class="cls-67" d="M187.9 254.1h2.1v2.2h-2.1z"/><path class="cls-65" d="M190 254.1h9.2v2.2H190z"/><path class="cls-67" d="M187.9 257h2.1v2.2h-2.1z"/><path class="cls-65" d="M190 257h5.5v2.2H190z"/><path class="cls-67" d="M187.9 260h2.1v2.2h-2.1z"/><path class="cls-65" d="M190 260h5.9v2.2H190z"/><path class="cls-92" d="M193.5 241.9h2.1v1.7h-2.1z"/><path class="cls-38" d="M205.5 243.5h2.5v1.7h-2.5z"/><path class="cls-92" d="M203 245.2h2.5v1.7H203z"/><path class="cls-38" d="M195.9 260.6h2.5v1.7h-2.5z"/><path class="cls-92" d="M193.4 266.9h2.5v1.7h-2.5zM193.4 262.2h2.5v1.7h-2.5z"/><path class="cls-27" d="M177.6 263.9h2.1v1.7h-2.1z"/><path style="fill:#44464f" d="M175.3 271.7h2.1v1.7h-2.1z"/><path style="fill:#3b414f" d="M173.1 273.3h2.1v1.7h-2.1z"/><path class="cls-27" d="M169.7 256.8h2.1v1.7h-2.1z"/><path class="cls-92" d="M172.1 244.5h2.1v1.7h-2.1zM174.2 246.1h2.1v1.7h-2.1z"/><path class="cls-27" d="M171.8 258.4h2.1v1.7h-2.1zM161.1 256.8h2.1v1.7h-2.1zM163.3 258.4h2.1v1.7h-2.1zM179.7 262.2h2.1v1.7h-2.1z"/><path class="cls-92" d="M203 249.3h2.5v1.7H203zM200.4 251h2.5v1.7h-2.5zM203 252.6h2.5v1.7H203z"/><path class="cls-53" d="M190.7 246.8v-.3h-.1v.3-.9h.1s.1 0 .1.3V246.8c.1 0 0 0 0 0Zm-.2-.5v-.2.3ZM190.9 246.3c0-.3 0-.4.2-.4s.2.1.2.4 0 .4-.2.4-.2-.1-.2-.4Zm.3 0c0-.2 0-.3-.1-.3s-.1 0-.1.3 0 .3.1.3.1-.1.1-.3ZM191.3 246.3c0-.3 0-.4.2-.4s.2.1.2.4 0 .4-.2.4-.2-.1-.2-.4Zm.4 0c0-.2 0-.3-.1-.3s-.1 0-.1.3 0 .3.1.3.1-.1.1-.3ZM191.8 245.9h.3c0 .1-.2.1-.2.1v.2h.1c0 .1-.1.1-.1.1v.4-.9ZM192.3 246h-.1c0-.1.4-.1.4-.1 0 .1-.1.1-.1.1v.7-.7Z"/><path class="cls-53" d="M192.5 246.3c0-.3 0-.4.2-.4s.2.1.2.4 0 .4-.2.4-.2-.1-.2-.4Zm.4 0c0-.2 0-.3-.1-.3s-.1 0-.1.3 0 .3.1.3.1-.1.1-.3ZM193 245.9h.1s.2 0 .2.3 0 .3-.1.3v.3-.9h-.1Zm.2.4v-.2.3ZM193.6 246.6c0-.1.1 0 .1 0v-.4c0-.1 0-.2.1-.2h.1v.4c0 .2 0 .3-.1.3s-.1 0-.1-.1h-.2ZM194.1 246h-.1c0-.1.4-.1.4-.1 0 .1-.1.1-.1.1v.7-.7Z"/><path class="cls-53" d="M194.5 246.5h-.1v.2h-.1v-.9h.3v.9c.1 0 0 0 0 0v-.2Zm0-.1v-.4.3h.1-.1ZM194.7 246.3c0-.3 0-.4.2-.4h.1s-.1.1-.1.3 0 .3.1.3v-.1c0-.1.1-.1.1-.1v.4h-.1c-.1 0-.2-.1-.2-.4ZM195.2 245.9h.3c0 .1-.2.1-.2.1v.2h.1c0 .1-.1.1-.1.1v.2h.2c0 .1-.3.1-.3.1v-.9ZM190.5 248.8v.4h.1v-.4.9-.4h-.1v.4-.9ZM191 248.8h.3c0 .1-.2.1-.2.1v.2h.1c0 .1-.1.1-.1.1v.2h.2c0 .1-.3.1-.3.1v-.9ZM191.5 249.4h-.1v.2h-.1v-.9h.3v.9c.1 0 0 0 0 0v-.2Zm0-.1v-.4.3h.1-.1ZM191.7 248.8h.1c.1 0 .2.1.2.4s0 .4-.2.4h-.1v-.9Zm.1.8s.1 0 .1-.3 0-.3-.1-.3v.6ZM192.2 249.3c0-.3 0-.4.2-.4s.2.1.2.4 0 .4-.2.4-.2-.1-.2-.4Zm.4 0c0-.2 0-.3-.1-.3s-.1 0-.1.3 0 .3.1.3.1-.1.1-.3ZM192.8 248.8h.3c0 .1-.2.1-.2.1v.2h.1c0 .1-.1.1-.1.1v.4-.9Z"/><path class="cls-53" d="M193.1 248.8h.3c0 .1-.2.1-.2.1v.2h.1c0 .1-.1.1-.1.1v.4-.9ZM193.5 248.8v.9-.9ZM193.7 249.3c0-.3 0-.4.2-.4h.1s-.1.1-.1.3 0 .3.1.3c0 .2 0 .2-.1.2s-.2-.1-.2-.4ZM194.1 248.8h.3c0 .1-.2.1-.2.1v.2h.1c0 .1-.1.1-.1.1v.2h.2c0 .1-.3.1-.3.1v-.9ZM190.5 252.2c0-.3 0-.4.2-.4s.2.1.2.4 0 .4-.2.4-.2-.1-.2-.4Zm.3 0c0-.2 0-.3-.1-.3s-.1 0-.1.3 0 .3.1.3.1-.1.1-.3ZM191 251.9h.1s.2 0 .2.3 0 .3-.1.3v.3-.9h-.1Zm.1.3v-.2.3ZM191.4 251.9h.3c0 .1-.2.1-.2.1v.2h.1c0 .1-.1.1-.1.1v.2h.2c0 .1-.3.1-.3.1v-.9Z"/><path class="cls-53" d="M191.7 251.9v.4c.1 0 .1.2.1.2v-.6.9-.4c-.1 0-.1-.1-.1-.1v.6-.9ZM192.4 251.9v.7h.2c0 .1-.3.1-.3.1v-.9ZM193 252.4h-.1v.2h-.1v-.9h.3v.9c.1 0 0 0 0 0v-.2Zm-.1-.1v-.4.3h.1-.1Z"/><path class="cls-53" d="M193.1 251.9h.1s.1 0 .1.2v.4c0 .2 0 .2-.1.2h-.1v-.9Zm.2.2v-.1c0-.1 0 0 0 0v.2Zm0 .4v-.2.2ZM190.5 258c0-.3 0-.4.2-.4h.1s-.1.1-.1.3 0 .3.1.3v-.1c0-.1.1-.1.1-.1v.4h-.1c-.1 0-.2-.1-.2-.4ZM191.2 258.3h-.1v.2h-.1v-.9h.3v.9c.1 0 0 0 0 0v-.2Zm-.1-.2v-.4.3h.1-.1Z"/><path class="cls-53" d="M191.3 257.7v.7h.2c0 .1-.3.1-.3.1v-.9ZM191.7 257.7v.7h.2c0 .1-.3.1-.3.1v-.9ZM192.2 258.3h-.1v.2h-.1v-.9h.3v.9c.1 0 0 0 0 0v-.2Zm0-.2v-.4.3h.1-.1ZM192.7 258.5v-.3h-.1v.3-.9h.1s.1 0 .1.3V258.5c.1 0 0 0 0 0Zm-.2-.5v-.2.3ZM193 258.2v-.5c-.1 0 0 0 0 0v.4-.4h.1v.5c-.1 0-.1.3-.1.3v-.3ZM193.4 257.7h.3c0 .1-.2.1-.2.1v.2h.1c0 .1-.1.1-.1.1v.2h.2c0 .1-.3.1-.3.1v-.9ZM193.8 258.4v.1-.1ZM194 257.7v.5-.5h.1v.9-.6.6h-.1v-.4l-.1-.2v.6-.9h.1ZM190.5 261.1c0-.3 0-.4.2-.4s.2.1.2.4 0 .4-.2.4-.2-.1-.2-.4Zm.3 0c0-.2 0-.3-.1-.3s-.1 0-.1.3 0 .3.1.3.1-.1.1-.3ZM191 260.6h.1s.2 0 .2.3 0 .3-.1.3v.3-.9h-.1Zm.1.5v-.2.3ZM191.4 260.6h.3c0 .1-.2.1-.2.1v.2h.1c0 .1-.1.1-.1.1v.2h.2c0 .1-.3.1-.3.1v-.9Z"/><path class="cls-53" d="M191.7 260.6v.4c.1 0 .1.2.1.2v-.6.9-.4c-.1 0-.1-.1-.1-.1v.6-.9ZM192.3 261.3c0-.1.1 0 .1 0v-.4c0-.1 0-.2.1-.2h.1v.4c0 .2 0 .3-.1.3s-.1 0-.1-.1h-.2ZM193.2 261.6s-.1 0-.2-.2c0 0-.1-.2-.1-.4s0-.4.2-.4.2.1.2.4 0 .4-.1.4v.1Zm-.2-.3s.1-.1.1-.3 0-.3-.1-.3-.1 0-.1.3 0 .3.1.3Z"/><path class="cls-53" d="M193.3 261.1v-.4.7-.7.4c0 .3 0 .4-.1.4s-.2-.1-.2-.4ZM193.9 261.3h-.1v.2h-.1v-.9h.3v.9c.1 0 0 0 0 0v-.2Zm0-.2v-.4.3h.1-.1ZM194.3 261.5v-.3h-.1v.3-.9h.1s.1 0 .1.3V261.5c.1 0 0 0 0 0Zm-.1-.5v-.2.3ZM194.5 260.6h.3c0 .1-.2.1-.2.1v.2h.1c0 .1-.1.1-.1.1v.2h.2c0 .1-.3.1-.3.1v-.9ZM190.5 255.4c0-.1.1 0 .1 0v-.4c0-.1 0-.2.1-.2h.1v.4c0 .2 0 .3-.1.3s-.1 0-.1-.1h-.2ZM190.9 254.7v.4h.1v-.4.9-.4h-.1v.4-.9ZM191.5 255.4h-.1v.2h-.1v-.9h.3v.9c.1 0 0 0 0 0v-.2Zm0-.2v-.4.3h.1-.1ZM192 255.6v-.3h-.1v.3-.9h.1s.1 0 .1.3V255.6c.1 0 0 0 0 0Zm-.2-.5v-.2.3ZM192.2 254.7h.3c0 .1-.2.1-.2.1v.2h.1c0 .1-.1.1-.1.1v.2h.2c0 .1-.3.1-.3.1v-.9ZM192.7 255.2c0-.3 0-.4.2-.4s.2.1.2.4 0 .4-.2.4-.2-.1-.2-.4Zm.3 0c0-.2 0-.3-.1-.3s-.1 0-.1.3 0 .3.1.3.1-.1.1-.3ZM193.2 254.7h.3c0 .1-.2.1-.2.1v.2h.1c0 .1-.1.1-.1.1v.4-.9ZM193.5 254.7h.3c0 .1-.2.1-.2.1v.2h.1c0 .1-.1.1-.1.1v.4-.9ZM193.9 254.7v.9-.9ZM194.1 255.2c0-.3 0-.4.2-.4h.1s-.1.1-.1.3 0 .3.1.3c0 .2 0 .2-.1.2s-.2-.1-.2-.4ZM194.5 254.7h.3c0 .1-.2.1-.2.1v.2h.1c0 .1-.1.1-.1.1v.2h.2c0 .1-.3.1-.3.1v-.9ZM195.1 254.7h.1c.1 0 .2.1.2.4s0 .4-.2.4h-.1v-.9Zm.1.7s.1 0 .1-.3 0-.3-.1-.3v.6ZM195.5 254.7h.3c0 .1-.2.1-.2.1v.2h.1c0 .1-.1.1-.1.1v.2h.2c0 .1-.3.1-.3.1v-.9Z"/><path class="cls-53" d="M195.8 255.4c0-.1.1 0 .1 0v-.4c0-.1 0-.2.1-.2h.1v.4c0 .2 0 .3-.1.3s-.1 0-.1-.1h-.2ZM196.3 255.2c0-.3 0-.4.2-.4h.1s-.1.1-.1.3 0 .3.1.3v-.1c0-.1.1-.1.1-.1v.4h-.1c-.1 0-.2-.1-.2-.4ZM196.7 254.7v.9-.9ZM196.9 254.7v.4c.1 0 .1.2.1.2v-.6.9-.4c-.1 0-.1-.1-.1-.1v.6-.9ZM197.5 254.7v.7h.2c0 .1-.3.1-.3.1v-.9ZM198.1 255.4h-.1v.2h-.1v-.9h.3v.9c.1 0 0 0 0 0v-.2Zm0-.2v-.4.3h.1-.1ZM198.3 254.7h.1s.1 0 .1.2v.4c0 .2 0 .2-.1.2h-.1v-.9Zm.1.4v-.1c0-.1 0 0 0 0v.2Zm0 .3v-.2.2ZM188.8 261.5h.1v-.5c0-.1 0-.1.1-.1v.7c0 .1-.4.1-.4.1v-.2ZM188.8 258.5c.1-.2.2-.4.2-.5v-.1c0-.1 0-.2.1-.2s.1 0 .1.3 0 .3-.2.4h.2c0 .1-.4.1-.4.1ZM188.8 255.6h.1v-.1c0-.1 0-.1-.1-.1 0-.1.1-.1.1-.3 0-.1 0-.2.1-.2s.2 0 .2.2v.2s.1 0 .1.2 0 .2-.2.2-.1 0-.2-.1ZM189 246.2h-.2c0-.1.4-.1.4-.1-.1.4-.1.5-.1.9h-.1c0-.3 0-.5.1-.7ZM188.8 251.9h.4c0 .1-.2.1-.2.1v.2h.2c0 .1-.2.1-.2.1v.4h-.1v-.9ZM188.5 249.6v-.4h.2-.1c0 .1.1.1.1.3s0 .2-.1.2h-.1ZM188.9 249.3v-.1.1ZM189.3 249.2V249.5c0 .1 0 .2-.1.2s-.1 0-.1-.3 0-.3.1-.3Zm0 .3Z"/><path style="fill:#222226" d="M147.9 240.8h42v2.5h-42z"/><path style="fill:#1e2026" d="M189.9 240.8H212v2.5h-22.1z"/><path class="cls-91" d="M150.1 240.8h-.9v40.6h.9v-40.6zM134.5 240.8h-.9v40.6h.9v-40.6z"/><path class="cls-94" d="M186.7 243.3h1.1V242c-.6 0-1.1.6-1.1 1.3Z"/><path class="cls-89" d="M188.4 243.3h1.4c0-.7-.5-1.3-1.1-1.3h-1.1v1.3h.7Z"/><path class="cls-85" d="M188.4 243.3h-1c0 .3.1.5.3.6h.1c.3 0 .5-.3.5-.6Z"/><path class="cls-94" d="M193.8 243.3h-1.3V242c.7 0 1.3.6 1.3 1.3Z"/><path class="cls-89" d="M191.7 243.3H190c0-.7.6-1.3 1.3-1.3h1.3v1.3h-.9Z"/><path class="cls-85" d="M191.7 243.3h1.2c0 .3-.1.5-.4.6h-.2c-.3 0-.6-.3-.6-.6Z"/><path class="cls-40" d="M116.1 222.7h47v18h-47z"/><path class="cls-75" d="M149.2 281.4V241.5h-8.8v39.9h8.8z"/><path class="cls-91" d="M139.7 240.7h-.7v40.6h.7v-40.6z"/><path class="cls-69" d="M139 240.7H138.4v40.6h.6v-40.6z"/><path class="cls-91" d="M144.7 252.6h-.7v28.7h.7v-28.7z"/><path class="cls-69" d="M144 252.6h-.6v28.7h.6v-28.7z"/><path class="cls-33" d="M128.1 240.7h-.8v40.6h.8v-40.6z"/><path class="cls-50" d="M127.3 240.7h-.6v40.6h.6v-40.6z"/><path class="cls-69" d="M149.2 240.7H148.6v40.6h.6v-40.6z"/><path class="cls-50" d="M133.6 240.7H133v40.6h.6v-40.6z"/><path class="cls-91" d="M150.1 253.7v-1.1h-16.5v1.1h16.5zM150.1 241.9v-1.1h-16.5v1.1h16.5z"/><path class="cls-2" d="M163.1 240.8V121.3M159.3 222.7V121.8M155.4 222.7V121.5M151.5 222.7V121.5"/><path class="cls-1" d="M167 239.8V48.9"/><path class="cls-3" d="M170.7 239.8V48.9M174.7 239.8V48.9"/><path class="cls-32" d="M147.6 222.7v18.1h3.9v-18.1h-3.9zM139.8 222.7v18.1h3.9v-18.1h-3.9zM131.9 222.7v18.1h3.9v-18.1h-3.9zM124.1 222.7v18.1h4v-18.1h-4zM116.1 222.7v18.1h3.9v-18.1h-3.9z"/><path class="cls-74" d="M51 222.7v18.1h65.1v-18.1H51z"/><path class="cls-3" d="M163.6 201h14.7M163.6 181.1h14.7M163.6 141.3h14.7M163.6 161.1h14.7M163.6 222.7h14.7"/><path class="cls-75" d="M147 161.1h4.4v61.6H147z"/><path class="cls-47" d="M117 161.4h32.3v18H117z"/><path class="cls-10" d="M109.9 162.2h7.1v17.2h-7.1z"/><path style="fill:#5b8f97" d="M102.3 162.2h7.5v17.2h-7.5z"/><path style="fill:#d2d3d3" d="M109.4 179.4h39.9v43.3h-39.9z"/><path class="cls-74" d="M78.7 179.5h30.8v43.3H78.7zM11.9 222.7h28.5v60.5H11.9z"/><path class="cls-40" d="M40.4 222.7h34.1v60.5H40.4z"/><path class="cls-40" d="M40.9 222.7h75.2v18H40.9z"/><path class="cls-34" d="M151.2 121.5v39.8l11.8-39.8h-11.8zM97.1 240.8v38.4l25.3-38.4H97.1z"/><path class="cls-32" d="M131.8 87v34.5h3.9V48.9h-3.9V87zM124.8 102.6v18.9h3.3V81.7h-3.3v20.9z"/><path class="cls-74" d="M51 87v34.6h3.9V48.9H51V87z"/><path class="cls-74" d="M54.5 87v34.6h3.8V48.9h-3.8V87z"/><path class="cls-8" d="M151.4 121.5V48.9h-4v72.6"/><path class="cls-40" d="M155.3 87v34.5h3.9V48.9h-3.9V87z"/><path class="cls-3" d="M117.3 101.5h61M128.1 81.7h50.2M127.9 65.3h50.4"/><path style="stroke-width:.3px;stroke:#cfd8dc;stroke-miterlimit:10;fill:none" d="M177.7 81.7h.6"/><path class="cls-50" d="M133 253.7v-1.1h-5.7v1.1h5.7zM133 241.9v-1.1h-5.7v1.1h5.7z"/><path style="opacity:.2;isolation:isolate;fill:#818282" d="M133.6 240.8v37.6l16.5-37.6h-16.5z"/><path class="cls-91" d="M133.6 278.4h16.5v2.9h-16.5z"/><path class="cls-50" d="M126.7 278.4h6.3v2.9h-6.3z"/><path class="cls-3" d="M159.2 121.5V48.9M155.3 121.5V48.9M139.6 121.5V48.9M131.8 121.5V48.9M135.7 121.5V48.9M128.1 121.5V48.9M121.7 121.5V48.9M143.5 121.5V48.9"/><path style="fill:#cacaca" d="M127.9 46.1h50.4V49h-50.4z"/><path class="cls-13" d="M124.8 46.1h3.5V49h-3.5zM117.3 46.1h4.6V49h-4.6z"/><path class="cls-78" d="M47.7 46.1h10.6V49H47.7z"/><path style="fill:#888e91" d="M58.3 46.1h3.3V49h-3.3z"/><path class="cls-78" d="M64.5 46.1h52.8V49H64.5z"/><path class="cls-82" d="M78.8 240.7h-1.4v40.6h1.4v-40.6z"/><path class="cls-54" d="M77.4 240.7H76v40.6h1.4v-40.6z"/><path class="cls-30" d="M76 240.7h-1.4v40.6H76v-40.6z"/><path class="cls-54" d="M80.2 240.7h-1.4v40.6h1.4v-40.6z"/><path class="cls-36" d="M102.3 115.2h8.3v45.9h-8.3z"/><path class="cls-20" d="M102.4 113.9h8.3v1.4h-8.3zM102.3 160.9h48.9v1.4h-48.9z"/><path class="cls-25" d="M110.3 162.3h-.8v17.1h.8v-17.1z"/><path class="cls-91" d="M111 162.3h-.7v17.1h.7v-17.1z"/><path class="cls-25" d="M109.9 162.3v.9h7.5v-.9h-7.5zM109.9 178.5v.9h7.5v-.9h-7.5z"/><path class="cls-91" d="M149.4 162.3h-.7v17.1h.7v-17.1z"/><path class="cls-25" d="M148.7 162.3h-.8v17.1h.8v-17.1zM117.8 162.3h-.8v17.1h.8v-17.1z"/><path class="cls-91" d="M118.5 162.3h-.7v17.1h.7v-17.1z"/><path class="cls-25" d="M122.8 162.3h-.7v17.1h.7v-17.1z"/><path class="cls-91" d="M123.5 162.3h-.7v17.1h.7v-17.1z"/><path class="cls-25" d="M127.8 162.3h-.7v17.1h.7v-17.1z"/><path class="cls-91" d="M128.6 162.3h-.8v17.1h.8v-17.1z"/><path class="cls-25" d="M132.4 162.3h-.7v17.1h.7v-17.1z"/><path class="cls-91" d="M133.2 162.3h-.8v17.1h.8v-17.1z"/><path class="cls-25" d="M137 162.3h-.7v17.1h.7v-17.1z"/><path class="cls-91" d="M137.8 162.3h-.8v17.1h.8v-17.1z"/><path class="cls-25" d="M141.5 162.3h-.8v17.1h.8v-17.1z"/><path class="cls-91" d="M142.2 162.3h-.7v17.1h.7v-17.1z"/><path class="cls-25" d="M145.5 162.3h-.7v17.1h.7v-17.1z"/><path class="cls-91" d="M146.2 162.3h-.7v17.1h.7v-17.1z"/><path class="cls-82" d="M157.2 240.8H155.3v42.5h1.9v-42.5z"/><path class="cls-54" d="M155.3 240.8H153.4v42.5h1.9v-42.5z"/><path class="cls-30" d="M153.4 240.8h-1.9v42.5h1.9v-42.5z"/><path class="cls-54" d="M159 240.8h-1.8v42.5h1.8v-42.5z"/><path class="cls-91" d="M117.8 162.3v.9h31.6v-.9h-31.6zM117.8 178.5v.9h31.6v-.9h-31.6z"/><path class="cls-24" d="M36.3 222.7v60.6h4.1v-60.6h-4.1zM28.2 222.7v60.6h4.1v-60.6h-4.1zM20 222.7v60.6h4.1v-60.6H20zM11.9 222.7v60.6h4v-60.6h-4z"/><path class="cls-32" d="M107.9 222.7v18h4.1v-18h-4.1zM99.8 222.7v18h4.1v-18h-4.1zM91.7 222.7v18h4v-18h-4zM83.6 222.7v18h4v-18h-4zM75.4 222.7v18h4.1v-18h-4.1zM67.3 222.7v60.6h4.1v-60.6h-4.1zM59.1 222.7v60.6h4.1v-60.6h-4.1zM51 222.7v60.6h4.1v-60.6H51zM42.9 222.7v60.6h4v-60.6h-4z"/><path style="stroke:#9ba2a8;stroke-width:0;stroke-miterlimit:10;fill:none" d="M11.9 240.7h62.7"/><path class="cls-75" d="M17 238.4h2.2v15.5H17zM22.3 238.4h2.2v15.5h-2.2zM27.4 238.4h2.2v15.5h-2.2zM33 238.4h2.2v15.5H33z"/><path class="cls-52" d="M17 237.8h2.2v.6H17zM22.3 237.8h2.2v.6h-2.2zM27.4 237.8h2.2v.6h-2.2zM33 237.8h2.2v.6H33zM22.3 253.9h2.2v.6h-2.2zM27.4 253.9h2.2v.6h-2.2zM33 253.9h2.2v.6H33zM17 253.9h2.2v.6H17zM16.5 237.8h.5v16.8h-.5z"/><path class="cls-49" d="M17 238.4h.5v15.5H17zM22.2 238.4h.5v15.5h-.5zM27.4 238.5h.5V254h-.5zM33 238.4h.5v15.5H33z"/><path class="cls-52" d="M19.2 237.7h.5v16.8h-.5zM24.5 237.8h.5v16.8h-.5zM21.7 237.7h.5v16.8h-.5zM26.9 237.8h.5v16.8h-.5zM29.7 237.8h.5v16.8h-.5zM32.5 237.8h.5v16.8h-.5zM35.2 237.8h.5v16.8h-.5z"/><path class="cls-47" d="M122 192.1h21.4v12.8H122z"/><path class="cls-25" d="M144.5 192h-1.1v12.8h1.1V192z"/><path class="cls-1" d="M117.3 121.3h61"/><path style="fill:#cfd8dc" d="M117.3 121h61v.6h-61z"/><path class="cls-43" d="M114 87v34.5h3.3V48.9H114V87zM107.4 83v30.9h3.3v-65h-3.3V83zM100.7 83v30.9h3.3v-65h-3.3V83zM94.1 140v82.6h3.3V48.9h-3.3V140zM87.5 140.2v82.5h3.3V48.9h-3.3v91.3zM80.9 140v82.6h3.3V48.9h-3.3V140zM74.3 140v82.6h3.3V48.9h-3.3V140zM67.8 140v82.6H71V48.9h-3.2V140zM61.2 140v82.6h3.3V48.9h-3.3V140zM54.6 140.1v82.6h3.3V48.9h-3.3V140.1zM47.7 140.1v82.6H51V48.9h-3.3V140.1z"/><path class="cls-22" d="M62.2 115.2h40.3v45.9H62.2zM50.9 205.9h33.4v16.8H50.9z"/><path class="cls-36" d="M84.2 205.9H88v16.8h-3.8z"/><path class="cls-44" d="M62.2 113.9h40.3v1.4H62.2z"/><path style="opacity:.4;isolation:isolate;fill:#727272" d="M72 162.3v17.1l-9.8-17.1H72z"/><path class="cls-10" d="M72.9 162.2h29.5v17.2H72.9z"/><path class="cls-68" d="M72.4 162.3H72v17.1h.4v-17.1z"/><path class="cls-86" d="M72.9 162.3h-.5v17.1h.5v-17.1z"/><path class="cls-68" d="M87.4 162.3h-.5v17.1h.5v-17.1z"/><path class="cls-86" d="M87.8 162.3h-.4v17.1h.4v-17.1z"/><path class="cls-68" d="M83.6 162.3h-.4v17.1h.4v-17.1z"/><path class="cls-86" d="M84.1 162.3h-.5v17.1h.5v-17.1z"/><path class="cls-68" d="M80.2 162.3h-.4v17.1h.4v-17.1z"/><path class="cls-86" d="M80.6 162.3h-.4v17.1h.4v-17.1z"/><path class="cls-68" d="M76.4 162.3H76v17.1h.4v-17.1z"/><path class="cls-86" d="M76.9 162.3h-.5v17.1h.5v-17.1z"/><path class="cls-68" d="M91 162.3h-.5v17.1h.5v-17.1z"/><path class="cls-86" d="M91.4 162.3H91v17.1h.4v-17.1z"/><path class="cls-68" d="M94.5 162.3h-.4v17.1h.4v-17.1z"/><path class="cls-86" d="M95 162.3h-.5v17.1h.5v-17.1z"/><path class="cls-68" d="M98.1 162.3h-.5v17.1h.5v-17.1z"/><path class="cls-86" d="M98.5 162.3h-.4v17.1h.4v-17.1z"/><path class="cls-68" d="M103.1 162.3h-.8v17.1h.8v-17.1z"/><path class="cls-88" d="M103.8 162.3h-.7v17.1h.7v-17.1zM109.5 162.3h-.7v17.1h.7v-17.1z"/><path class="cls-88" d="M103.8 162.3v.9h5.7v-.9h-5.7zM103.8 178.5v.9h5.7v-.9h-5.7z"/><path class="cls-82" d="M110.4 162.2h-.9v17.2h.9v-17.2z"/><path class="cls-54" d="M109.5 162.2h-.8v17.2h.8v-17.2z"/><path class="cls-30" d="M108.7 162.2h-.8v17.2h.8v-17.2z"/><path class="cls-54" d="M111.2 162.2h-.8v17.2h.8v-17.2z"/><path class="cls-47" d="M135.7 95.1h6.1v6.4h-6.1zM145.2 58.8h6.1v6.4h-6.1zM164.6 95.1h6.1v6.4h-6.1z"/><path class="cls-22" d="M58.3 51h6.1v41h-6.1z"/><path class="cls-14" d="M58.3 48.9h6.1v2h-6.1z"/><path class="cls-50" d="M121.6 240.8h.6v38.5h-.6zM120.2 240.8h.6v38.5h-.6z"/><path class="cls-33" d="M96.3 240.8h.9v38.5h-.9zM122.1 240.7h.7v38.5h-.7z"/><path class="cls-50" d="M122 252.6h5.3v1.2H122zM122.1 278.4h5.2v1.2h-5.2zM122.1 240.8h5.2v1.2h-5.2z"/><path class="cls-19" d="M152.8 279.2H186v4.1h-33.2zM208.5 279.2h26.3v4.1h-26.3z"/><path class="cls-27" d="M157.2 270.8h28.9v8.4h-28.9z"/><path style="fill:#111" d="M155.3 270.8h1.9v8.4h-1.9z"/><path class="cls-74" d="M.5 279.2h11.4v4.1H.5z"/><path class="cls-47" d="M117 206.2h26.8v16.5H117zM64.2 106.3h17v5h-17zM84.2 106.3h13.4v5H84.2zM130.8 133.7h17v5h-17z"/><path class="cls-32" d="M.5 283.3h234.3v15.4H.5z"/><path style="fill:#dedede" d="M.5 298.6h234.3v7.7H.5z"/><path class="cls-43" d="M100.7 179.4h3.3v43.3h-3.3zM107.3 179.5h3.3v43.3h-3.3z"/><path class="cls-47" d="M94.1 196.7h9.9v4.1h-9.9zM61.2 195.2H88V206H61.2z"/><path class="cls-49" d="M61.2 195.2h1.3V206h-1.3zM64.2 106.3h1.4v5h-1.4zM84.2 106.3h1.4v5h-1.4zM94.1 196.7h1.4v4.1h-1.4z"/><path class="cls-84" d="M146.1 202.2v20.5h3.3v-43.3h-3.3v22.8zM110.7 202.2v20.5h3.2v-43.3h-3.2v22.8zM117 193.5v12.7h3.3V179.4H117v14.1z"/><path class="cls-47" d="M115.1 196.7h4v4.1h-4z"/><path style="fill:#b34343" d="m117 206.2 4.7 6.3v1H117v-7.3z"/><path class="cls-60" d="m144.6 206.2 4.7 6.3v1h-4.7v-7.3z"/><path style="fill:#cf4a4a" d="M121.7 212.5h27.5v1.1h-27.5z"/><path class="cls-60" d="M117 206.2h27.6l4.7 6.3h-27.6l-4.7-6.3z"/><path class="cls-95" d="M62.2 115.2h4.5V127h-4.5zM71.1 115.2h4.5V127h-4.5zM80 115.2h4.5V127H80zM89 115.2h4.5V127H89zM89 138.8h4.5v11.8H89zM97.9 138.8h4.5v11.8h-4.5z"/><path class="cls-31" d="M102.4 138.8h4.5v11.8h-4.5zM106.9 150.6h4.5V161h-4.5zM111.3 139.6h4.5v11h-4.5zM120.2 139.6h4.5v11h-4.5zM129.1 139.6h4.5v11h-4.5zM137.9 139.6h4.5v11h-4.5zM146.8 139.6h4.5v11h-4.5zM115.8 150.6h4.5V161h-4.5zM124.6 150.6h4.5V161h-4.5zM133.5 150.6h4.5V161h-4.5zM142.4 150.6h4.5V161h-4.5zM102.4 115.2h4.5V127h-4.5zM106.9 127h4.5v11.8h-4.5z"/><path class="cls-95" d="M93.4 150.6h4.5v11.8h-4.5zM84.5 150.6H89v11.1h-4.5zM97.9 115.2h4.5V127h-4.5zM66.6 127h4.5v11.8h-4.5zM75.5 127H80v11.8h-4.5zM84.5 127H89v11.8h-4.5zM93.4 127h4.5v11.8h-4.5z"/><path class="cls-81" d="M146.4 133.7v5h1.4v-5h-1.4z"/><path class="cls-61" d="M130.8 132.8v.9h17v-.9h-17zM130.8 138.7v.9h17v-.9h-17z"/><path class="cls-36" d="M44.9 77.1h52.5v3.8H44.9z"/><path class="cls-22" d="M40.4 77.1h52.5v3.8H40.4z"/><path class="cls-44" d="M40.4 76.3h52.5v.9H40.4zM40.4 80.9h52.5v.9H40.4z"/><path class="cls-23" d="M92.8 76.3h4.6v.9h-4.6zM92.8 80.9h4.6v.9h-4.6z"/><path class="cls-33" d="M120.8 240.7h.7v38.5h-.7z"/><path class="cls-50" d="M114.4 240.8h.6v38.5h-.6z"/><path class="cls-33" d="M115 240.8h.7v38.5h-.7z"/><path class="cls-50" d="M108.7 240.7h.6v38.5h-.6z"/><path class="cls-33" d="M109.2 240.7h.7v38.5h-.7z"/><path class="cls-50" d="M95.5 240.7h.9v38.5h-.9zM85.9 240.8h.9v38.5h-.9z"/><path style="fill:#9e9e9e" d="M86.7 240.9h.9v38.5h-.9z"/><path class="cls-38" d="M190.1 274.9h22.1v8.5h-22.1z"/><path class="cls-57" d="m143.8 213.5-4.2 9.2v-9.2h4.2zM117 213.5h22.6v9.2H117z"/><path class="cls-33" d="M96.3 252.6h25.3v1.2H96.3z"/><path class="cls-82" d="M104 240.8h-1.4v40.6h1.4v-40.6z"/><path class="cls-54" d="M102.6 240.8h-1.3v40.6h1.3v-40.6z"/><path class="cls-30" d="M101.3 240.8h-1.5v40.6h1.5v-40.6z"/><path class="cls-54" d="M105.4 240.8H104v40.6h1.4v-40.6z"/><path style="fill:#cbb9a5" d="M86.7 271.7H104v1H86.7z"/><path style="fill:#eddec5" d="M104.1 271.7h1.8v1h-1.8z"/><path style="fill:#f3ebd8" d="M103.9 272.6h1.5v6.5h-1.5z"/><path style="fill:#dfcfba" d="M87.2 272.6H104v6.5H87.2z"/><path class="cls-43" d="M150.4 58.8h1.2v6.4h-1.2zM140.6 95.1h1.2v6.4h-1.2zM117.9 196.7h1.2v4.1h-1.2zM169.5 95.1h1.2v6.4h-1.2z"/><path class="cls-54" d="M160.4 214.1h.8v8.7h-.8z"/><path class="cls-42" d="M161.2 214.1h.8v8.7h-.8z"/><path class="cls-54" d="M13.1 214.1h.8v8.7h-.8z"/><path class="cls-42" d="M13.9 214.1h.8v8.7h-.8z"/><path class="cls-10" d="M58.3 66.6h6.1V74h-6.1z"/><path class="cls-14" d="M58.3 66.7h1.1v7.4h-1.1z"/><path class="cls-10" d="M58.3 91.8h6.1v7.4h-6.1z"/><path class="cls-14" d="M58.3 91.9h1.1v7.4h-1.1z"/><path class="cls-25" d="M126.4 192H125.8v12.8h.6V192z"/><path class="cls-91" d="M126.9 192h-.5v12.8h.5V192z"/><path class="cls-25" d="M83.6 195.2h-.5v10.7h.5v-10.7z"/><path class="cls-91" d="M84.2 195.2h-.6v10.7h.6v-10.7z"/><path class="cls-25" d="M79.3 195.2H78.7v10.7h.6v-10.7z"/><path class="cls-91" d="M79.8 195.2h-.5v10.7h.5v-10.7z"/><path class="cls-25" d="M74.8 195.2h-.6v10.7h.6v-10.7z"/><path class="cls-91" d="M75.3 195.2h-.5v10.7h.5v-10.7z"/><path class="cls-25" d="M70.3 195.2h-.5v10.7h.5v-10.7z"/><path class="cls-91" d="M70.9 195.2h-.6v10.7h.6v-10.7z"/><path class="cls-25" d="M65.9 195.2h-.5v10.7h.5v-10.7z"/><path class="cls-91" d="M66.5 195.2h-.6v10.7h.6v-10.7z"/><path class="cls-25" d="M69.1 106.3H68.8v5h.3v-5z"/><path class="cls-91" d="M69.4 106.3H69.1v5h.3v-5z"/><path class="cls-25" d="M73 106.3H72.7v5h.3v-5z"/><path class="cls-91" d="M73.3 106.3H73v5h.3v-5z"/><path class="cls-25" d="M77 106.3H76.7v5h.3v-5z"/><path class="cls-91" d="M77.2 106.3H77v5h.2v-5z"/><path class="cls-25" d="M89.2 106.3H89v5h.2v-5z"/><path class="cls-91" d="M89.5 106.3H89.2v5h.3v-5z"/><path class="cls-25" d="M93.1 106.3H92.8v5h.3v-5z"/><path class="cls-91" d="M93.4 106.3H93.1v5h.3v-5z"/><path class="cls-25" d="M130.8 192H130.2v12.8h.6V192z"/><path class="cls-91" d="M131.3 192h-.5v12.8h.5V192z"/><path class="cls-25" d="M135.2 192h-.5v12.8h.5V192z"/><path class="cls-91" d="M135.8 192h-.6v12.8h.6V192z"/><path class="cls-25" d="M139.6 192h-.5v12.8h.5V192z"/><path class="cls-91" d="M140.1 192h-.5v12.8h.5V192z"/><path class="cls-91" d="M122.1 196.1v.7h22.4v-.7h-22.4z"/><path class="cls-72" d="M50.4 257.3v-2.8c0-.7-.5-1.4-1.2-1.4s-1.6.5-1.6 1.3v2.9c0 .4-.2.8-.6 1-.6.4-1.2 1-1.2 1.8v10.4c0 1.2.9 2 2.2 2h1.9c1.2 0 2.2-.9 2.2-2v-10.4c0-.8-.5-1.4-1.2-1.8s-.6-.6-.6-.9Z"/><path class="cls-77" d="M49 279.7c-.3 0-.6-.2-.6-.4v-14.9c0-.2.2-.4.6-.4s.6.2.6.4v14.9c0 .2-.2.4-.6.4Z"/><path class="cls-72" d="M7.6 256.8V254c0-.7-.5-1.4-1.2-1.4s-1.6.5-1.6 1.3v2.9c0 .4-.2.8-.6 1-.6.4-1.2 1-1.2 1.8V270c0 1.2.9 2 2.2 2h1.9c1.2 0 2.2-.9 2.2-2v-10.4c0-.8-.5-1.4-1.2-1.8s-.6-.6-.6-.9Z"/><path class="cls-77" d="M6.2 279.2c-.3 0-.6-.2-.6-.4v-14.9c0-.2.2-.4.6-.4s.6.2.6.4v14.9c0 .2-.2.4-.6.4Z"/><path class="cls-72" d="M65.5 254c-.6-.4-1.1-1.2-1.1-1.9v-.3c0-1.2-.7-2.2-1.9-2.7-.6-.3-.9-.8-.9-1.4v-4.2c0-1-.8-2-1.9-2.2-1.4-.1-2.6.8-2.6 2v4.3c0 .6-.4 1.2-.9 1.4-1.1.5-1.8 1.5-1.8 2.7v15.5c0 1.7 1.5 3.1 3.4 3.1h3.1c1.9 0 3.4-1.4 3.4-3.1 0-.9.5-1.7 1.2-2.2s.9-1.1.9-1.9v-7.2c0-.9-.4-1.6-1.1-1.9h.1Z"/><path class="cls-77" d="M60 279c-.3 0-.6-.2-.6-.4v-17.8c0-.2.2-.4.6-.4s.6.2.6.4v17.8c0 .2-.2.4-.6.4Z"/><path class="cls-77" d="M60 267.9h-.3c-.3-.1-.3-.4-.1-.6l3.2-3.7c.1-.2.5-.3.8-.1.3.1.3.4.1.6l-3.2 3.7c0 .1-.3.2-.4.2Z"/><path class="cls-83" d="M57 277.9h-1.8c-.3 0-.5-.2-.6-.6-.2-.6-.6-1.1-1.2-1.1h-7.3c-.5 0-.9.4-1.2 1.1-.1.4-.4.6-.6.6h-1.8c-.4 0-.9.6-.9 1.4h16c0-.8-.4-1.4-.9-1.4h.1ZM124.1 277.9h-1.8c-.3 0-.5-.2-.6-.6-.2-.6-.6-1.1-1.2-1.1h-7.3c-.5 0-.9.4-1.2 1.1-.1.4-.4.6-.6.6h-1.8c-.4 0-.9.6-.9 1.4h16c0-.8-.4-1.4-.9-1.4h.1Z"/><path class="cls-18" d="M65 276.1h-.1c-.7-.6-1.8-1.2-2.9-1.2-2.2 0-3.9 1.4-3.9 3.1v1.1H69c0-1.7-1.7-3.1-3.9-3.1ZM7.8 276.6h-.1c-.7-.6-1.9-1.2-3.1-1.2-2.2 0-4.1 1.4-4.1 3.1v1.1h11.4c0-1.7-1.8-3.1-4.1-3.1Z"/><path class="cls-48" d="M58.3 277.5v-.5c0-.5-.4-.9-.9-.9s-.9.4-.9.9v.5c-.6.1-1 .8-1 1.7h3.8c0-.9-.4-1.6-1-1.7ZM72.2 276.9v-.7c0-.6-.6-1.2-1.3-1.2-.7 0-1.3.5-1.3 1.2v.7c-.8.1-1.4 1.2-1.4 2.4h5.4c0-1.2-.6-2.2-1.4-2.4Z"/><path class="cls-25" d="M120.2 213.5H119.9v9.2h.3v-9.2z"/><path class="cls-91" d="M120.5 213.5H120.2v9.2h.3v-9.2z"/><path class="cls-25" d="M122.8 213.5H122.5v9.2h.3v-9.2z"/><path class="cls-91" d="M123.1 213.5H122.8v9.2h.3v-9.2z"/><path class="cls-25" d="M125.4 213.5h-.4v9.2h.4v-9.2z"/><path class="cls-91" d="M125.7 213.5H125.4v9.2h.3v-9.2z"/><path class="cls-25" d="M128 213.5h-.4v9.2h.4v-9.2z"/><path class="cls-91" d="M128.3 213.5H128v9.2h.3v-9.2z"/><path class="cls-25" d="M130.6 213.5h-.4v9.2h.4v-9.2z"/><path class="cls-91" d="M130.9 213.5h-.3v9.2h.3v-9.2z"/><path class="cls-25" d="M133.2 213.5h-.4v9.2h.4v-9.2z"/><path class="cls-91" d="M133.5 213.5h-.3v9.2h.3v-9.2z"/><path class="cls-25" d="M135.7 213.5H135.4v9.2h.3v-9.2z"/><path class="cls-91" d="M136 213.5H135.7v9.2h.3v-9.2z"/><path class="cls-25" d="M138.3 213.5H138v9.2h.3v-9.2z"/><path class="cls-91" d="M138.6 213.5H138.3v9.2h.3v-9.2z"/><path class="cls-25" d="M140.9 213.5H140.6v9.2h.3v-9.2z"/><path class="cls-91" d="M141.2 213.5H140.9v9.2h.3v-9.2z"/><path class="cls-25" d="M143.4 213.5h-.2v9.2h.2v-9.2z"/><path class="cls-91" d="M143.8 213.5h-.4v9.2h.4v-9.2z"/><path class="cls-25" d="M117.4 213.5h-.4v9.2h.4v-9.2z"/><path class="cls-91" d="M117.7 213.5H117.4v9.2h.3v-9.2z"/><path class="cls-44" d="M62.2 160.9h40.3v1.4H62.2z"/><path class="cls-11" d="M14.4 215.4h11.8v7.4H14.4z"/><path class="cls-54" d="M25.4 214.1h.8v8.7h-.8z"/><path class="cls-42" d="M26.1 214.1h.8v8.7h-.8z"/><path class="cls-11" d="M26.6 215.3h11.8v7.4H26.6z"/><path style="opacity:.5;fill:#649ea8;isolation:isolate" d="M38.8 215.3h122v7.4h-122z"/><path class="cls-54" d="M37.6 214.1h.8v8.7h-.8z"/><path class="cls-42" d="M38.4 214.1h.8v8.7h-.8z"/><path style="fill:#d6d6d6" d="M118.1 279.2h34.7v4.1h-34.7z"/><path class="cls-72" d="M120.7 262.7v-4.2c0-.9-.5-1.6-1.2-1.9-.4-.2-.6-.6-.6-1v-3c0-.7-.5-1.4-1.3-1.5-.9-.1-1.7.6-1.7 1.4v3.1c0 .4-.2.9-.6 1.1-.7.4-1.2 1.1-1.2 1.9v4.2c-1.1.5-1.8 1.7-1.8 3v2.7c0 1.9 1.4 3.3 3.1 3.3h1.4v-8.6c0-.3.3-.5.6-.5s.6.2.6.5v8.6h1.4c1.7 0 3.1-1.5 3.1-3.3v-2.7c0-1.3-.7-2.4-1.8-3h.2Z"/><path class="cls-77" d="M117.4 262.7c-.4 0-.6.2-.6.5v16c0 .3.3.5.6.5s.6-.2.6-.5v-16c0-.3-.3-.5-.6-.5Z"/><path class="cls-74" d="M40.4 279.2h77.7v4.1H40.4z"/><path class="cls-50" d="M96.3 253.7v-1.1H80.2v1.1h16.1z"/><path class="cls-34" d="M54.6 81.7h42.8v5.5H54.6zM54.6 87.2v-5.5h-6.9l6.9 5.5z"/><path class="cls-42" d="M46.9 214.1h.8v8.7h-.8z"/><path class="cls-54" d="M54.2 214.1h.8v8.7h-.8z"/><path class="cls-42" d="M55 214.1h.8v8.7H55z"/><path class="cls-54" d="M62.4 214.1h.8v8.7h-.8z"/><path class="cls-42" d="M63.2 214.1h.8v8.7h-.8z"/><path class="cls-54" d="M70.5 214.1h.8v8.7h-.8z"/><path class="cls-42" d="M71.4 214.1h.8v8.7h-.8z"/><path class="cls-54" d="M78.7 214.1h.8v8.7h-.8z"/><path class="cls-42" d="M79.5 214.1h.8v8.7h-.8z"/><path class="cls-54" d="M86.8 214.1h.8v8.7h-.8z"/><path class="cls-42" d="M87.6 214.1h.8v8.7h-.8z"/><path class="cls-54" d="M94.9 214.1h.8v8.7h-.8z"/><path class="cls-42" d="M95.7 214.1h.8v8.7h-.8z"/><path class="cls-54" d="M103 214.1h.8v8.7h-.8z"/><path class="cls-42" d="M103.8 214.1h.8v8.7h-.8z"/><path class="cls-54" d="M111.2 214.1h.8v8.7h-.8z"/><path class="cls-42" d="M112 214.1h.8v8.7h-.8z"/><path class="cls-54" d="M119.4 214.1h.8v8.7h-.8z"/><path class="cls-42" d="M120.2 214.1h.8v8.7h-.8z"/><path class="cls-54" d="M127.5 214.1h.8v8.7h-.8z"/><path class="cls-42" d="M128.3 214.1h.8v8.7h-.8z"/><path class="cls-54" d="M135.7 214.1h.8v8.7h-.8z"/><path class="cls-42" d="M136.5 214.1h.8v8.7h-.8z"/><path class="cls-54" d="M143.9 214.1h.8v8.7h-.8z"/><path class="cls-42" d="M144.7 214.1h.8v8.7h-.8z"/><path class="cls-54" d="M152 214.1h.8v8.7h-.8z"/><path class="cls-42" d="M152.8 214.1h.8v8.7h-.8z"/><path class="cls-54" d="M46.1 214.1h.8v8.7h-.8z"/><path class="cls-44" d="M50.9 205.9h33.4v1.4H50.9z"/><path class="cls-20" d="M84.2 205.9H88v1.4h-3.8z"/><path d="M185.9 279.2s-.1 0-.1-.1v-7.9h-28.5s-.1 0-.1-.1 0-.1.1-.1h28.6s.1 0 .1.1v8.1s0 .1-.1.1Z" style="fill:#353535"/><path class="cls-47" d="M108.5 133.7h17v5h-17z"/><path class="cls-61" d="M108.5 132.8v.9h17v-.9h-17z"/><path class="cls-81" d="M124.1 133.7v5h1.4v-5h-1.4z"/><path class="cls-61" d="M108.5 138.7v.9h17v-.9h-17z"/><path class="cls-75" d="M66.1 139.7h19.4v15.5H66.1z"/><path style="fill:#545454" d="M66.8 139.7h-.7v15.6h.7v-15.6z"/><path class="cls-61" d="M66.1 138.8v.9H85.5v-.9H66.1zM66.1 155.3v.8H85.5v-.8H66.1z"/><path class="cls-63" d="M66.8 149.7h18.6v.6H66.8z"/><path class="cls-63" d="M71.1 139.7h.5v15.5h-.5zM75.7 139.7h.5v15.5h-.5zM80.4 139.7h.5v15.5h-.5z"/></g></g></g><path class="cls-73" d="M217.2 78.5h.9c.8-1.9 2.7-3.2 4.9-3.2s1 0 1.4.2c1.2-2.4 3.7-4.1 6.5-4.1s7.3 3.2 7.3 7.3v.2c.6-.3 1.2-.5 1.8-.5 1.9 0 3.5 1.4 3.7 3.2h1.9c1.2 0 2.1.9 2.1 2.1s-.9 2.1-2.1 2.1h-28.5c-2 0-3.7-1.7-3.7-3.7s1.7-3.7 3.7-3.7Z"/><path class="cls-12" d="M202 79.5h.8c.7-1.7 2.4-2.9 4.3-2.9s.9 0 1.3.1c1-2.2 3.2-3.7 5.8-3.7s6.4 2.9 6.4 6.4v.2c.5-.3 1-.4 1.6-.4 1.7 0 3.1 1.2 3.2 2.9h1.7c1 0 1.9.9 1.9 1.9s-.9 1.9-1.9 1.9h-25.2c-1.9 0-3.3-1.5-3.3-3.3s1.5-3.3 3.3-3.3Z"/><path class="cls-12" d="M220.8 71.1c-.4 0-.7 0-1 .1-.9-2.2-3.1-3.7-5.6-3.7s-1.2 0-1.7.2c-1.4-2.8-4.2-4.7-7.5-4.7s-8.3 3.7-8.3 8.3v.3c-.6-.4-1.3-.6-2.1-.6-2.2 0-4 1.7-4.2 3.8h-2.2c-1.3 0-2.4 1.1-2.4 2.4s1.1 2.4 2.4 2.4h32.7c2.4 0 4.3-1.9 4.3-4.3s-1.9-4.3-4.3-4.3Z"/><path class="cls-73" d="M3.3 154.5h.9c.8-1.9 2.7-3.2 5-3.2s1 0 1.4.2c1.2-2.4 3.7-4.2 6.6-4.2s7.3 3.3 7.3 7.3v.2c.6-.3 1.2-.5 1.8-.5 1.9 0 3.5 1.4 3.7 3.3h1.9c1.2 0 2.1.9 2.1 2.1s-.9 2.1-2.1 2.1H3.4c-2.1 0-3.7-1.7-3.7-3.7s1.7-3.7 3.7-3.7Z"/><path class="cls-12" d="M-12 155.5h.8c.7-1.7 2.4-2.9 4.3-2.9s.9 0 1.3.1c1.1-2.2 3.2-3.7 5.8-3.7s6.5 2.9 6.5 6.5v.2c.5-.3 1-.4 1.6-.4 1.7 0 3.1 1.2 3.3 2.9h1.7c1 0 1.9.9 1.9 1.9s-.9 1.9-1.9 1.9H-12c-1.9 0-3.3-1.5-3.3-3.3s1.5-3.3 3.3-3.3Z"/><path class="cls-12" d="M7 147.1c-.4 0-.7 0-1 .1-.9-2.2-3.1-3.7-5.7-3.7s-1.2 0-1.7.2c-1.4-2.8-4.2-4.7-7.5-4.7s-8.4 3.7-8.4 8.4v.3c-.6-.4-1.3-.6-2.1-.6-2.2 0-4 1.7-4.3 3.8h-2.2c-1.3 0-2.4 1.1-2.4 2.4s1.1 2.4 2.4 2.4H7c2.4 0 4.3-1.9 4.3-4.3s-1.9-4.3-4.3-4.3Z"/><path class="cls-72" d="M224.6 248.9v-3.7c0-.9-.6-1.9-1.7-1.9s-2.2.6-2.2 1.7v3.9c0 .6-.3 1.1-.8 1.4-.9.5-1.5 1.4-1.5 2.4v13.9c0 1.5 1.2 2.7 2.9 2.7h2.6c1.5 0 2.9-1.2 2.9-2.7v-13.9c0-1.1-.6-1.9-1.5-2.4s-.8-.8-.8-1.2Z"/><path class="cls-77" d="M222.7 279c-.4 0-.8-.3-.8-.6v-20c0-.3.3-.6.8-.6s.8.3.8.6v20c0 .3-.3.6-.8.6Z"/><path class="cls-18" d="M226.7 273.2h-.3c-1.4-1.3-3.7-2.3-6.1-2.3-4.4 0-8.1 2.7-8.1 6.2v2.2h22.6c0-3.5-3.5-6.2-8.1-6.2v.1Z"/></g></svg>