<svg xmlns="http://www.w3.org/2000/svg" viewBox="0 0 421.7 167.3"><defs><style>.cls-2{fill:#e30038}.cls-3{fill:#fff}</style></defs><g id="_레이어_1" data-name="레이어_1"><g id="_레이어_1-2" data-name="_레이어_1"><path class="cls-2" d="M341 84c4.9 40.5 29 54.9 29 54.9s1.7-28-29-54.9Z"/><path class="cls-2" d="M344.1 81.2c23.3 33.6 51.3 35 51.3 35s-11.5-25.6-51.3-35Z"/><path class="cls-2" d="M345.6 77.3c36.3 18.8 61.7 7.1 61.7 7.1s-22.1-17.2-61.7-7.1Z"/><path class="cls-2" d="M345.1 73.2C386 72.9 403 50.6 403 50.6s-27.6-4.9-57.9 22.6Z"/><path class="cls-2" d="M340.5 72.1c36-19.3 40.6-47 40.6-47s-26.7 8.6-40.6 47Z"/><path class="cls-2" d="M336.8 70.2c22.8-33.9 14-60.5 14-60.5s-19.6 20-14 60.5Z"/><path class="cls-2" d="M332.7 70.2c4.4-40.6-15.8-60.1-15.8-60.1s-8 26.9 15.8 60.1Z"/><path d="M329 72.1c-15.1-38-42.1-45.7-42.1-45.7s5.5 27.5 42.1 45.7Z" style="fill:#e1007f"/><path d="M326.7 75.6c-31.1-26.6-58.5-20.8-58.5-20.8s17.7 21.8 58.5 20.8Z" style="fill:#f09400"/><path class="cls-3" d="M180.6 115.6c0-4.5 1-8.7 2.9-12.5s4.7-7.2 8.4-10.1c2.8-2.1 5.7-3.7 8.9-4.9 3.2-1.1 6.4-1.7 9.6-1.7s8.1.9 12 2.7c3.9 1.8 7.2 4.4 10.1 7.7 4.7 5.4 7.1 11.5 7.1 18.3s-.6 6.7-1.9 9.9c-1.2 3.2-3 6.1-5.4 8.7-2.9 3.3-6.3 5.8-10.3 7.6-3.9 1.8-8.1 2.7-12.4 2.7s-8.3-.9-12.2-2.6c-3.9-1.7-7.2-4.2-10-7.4-2.2-2.5-3.9-5.3-5.1-8.5-1.2-3.2-1.8-6.5-1.8-9.9Zm9.6.6c0 7.8 2.1 14.3 6.4 19.7 1.9 2.4 3.9 4.1 6.1 5.2 2.1 1.1 4.6 1.6 7.4 1.6s5.3-.5 7.4-1.6c2.1-1.1 4.2-2.8 6.1-5.2 4.2-5.4 6.4-12 6.4-19.8s-.6-8.4-1.7-12.3c-1.2-3.9-2.8-7.1-4.9-9.8-1.7-2.2-3.6-3.8-5.7-4.8s-4.6-1.5-7.5-1.5-5.3.5-7.4 1.5c-2.1 1-4 2.6-5.8 4.8-2.1 2.7-3.8 5.9-4.9 9.8-1.1 3.9-1.7 8-1.7 12.4h-.2ZM269.3 87.8v.9c-1.6 0-3 .3-4 .6s-1.9.9-2.7 1.7c-1.1 1.1-1.8 2.6-2.1 4.5-.2 1.4-.3 3.1-.3 4.9V130c0 2.2.1 4 .3 5.3.2 1.3.6 2.3 1.1 3.1.7 1.1 1.7 1.9 2.9 2.4s2.7.8 4.7.9v.9H242v-.9c1.7 0 3-.3 4-.7s1.9-.9 2.7-1.7 1.5-1.9 1.8-3.2.5-3.3.5-6.1v-29.6c0-2.8-.2-4.8-.5-6.1-.3-1.3-.9-2.4-1.8-3.3-.8-.8-1.7-1.3-2.7-1.7-1-.3-2.3-.6-4-.6v-.9h27.3ZM296.6 88.9c-1.8 0-8.3 0-11.8 1.7-2.1 1-3.9 2.3-5.3 4.3-1.3 1.9-2.3 4.4-3 7.6h-1l.8-14.8H327l.8 14.7h-1c-.8-3.7-2-6.5-3.6-8.4s-4-3.3-7.2-4.1c-2.6-.7-3.9-1.1-10.2-1.1v41.1c0 2.7.2 4.8.5 6.1s.9 2.4 1.8 3.3c.8.8 1.7 1.3 2.7 1.7s2.3.6 3.9.6v.9h-27.2v-.9c1.6 0 3-.3 4-.6s1.9-.9 2.7-1.7c.9-.9 1.5-1.9 1.8-3.3.3-1.3.5-3.3.5-6.1V88.8h.1ZM61.8 87.8v.9c1.6 0 2.8.3 3.8.6s1.8.9 2.6 1.7c.8.9 1.4 1.9 1.7 3.3.3 1.3.5 3.3.5 6.1v29L41.7 93.5c-4.2-5-8.8-5.6-9.9-5.7H20.1v.9c1.6 0 4.1.3 5.1.6s1.8.9 2.6 1.7c.9.9 1.4 2 1.7 3.3.3 1.3.5 3.3.5 6v29.6c0 2.7-.2 4.7-.5 6.1-.3 1.3-.9 2.4-1.7 3.3-.8.8-1.6 1.3-2.6 1.7s-3.5.6-5 .6v.9h20.2v-.9c-1.5 0-2.8-.3-3.8-.6s-1.8-.9-2.6-1.7c-.8-.9-1.4-1.9-1.7-3.2s-.5-3.3-.5-6.1V95.1l38.5 47.5h1.8v-42.2c0-2.7.2-4.7.5-6s.9-2.4 1.7-3.3c1.5-1.5 3.7-2.3 6.4-2.3v-.9H61.8ZM163 87.8v.9c1.5 0 2.8.3 3.8.6s1.8.9 2.6 1.7c.8.9 1.4 1.9 1.7 3.3.3 1.3.5 3.3.5 6.1v29l-28.7-35.9c-4.2-5-8.8-5.6-9.9-5.7h-11.7v.9c1.6 0 4.1.3 5.1.6s1.8.9 2.6 1.7c.8.9 1.4 2 1.7 3.3s.5 3.3.5 6v37.3c.3 1.3 1.1 2.4 1.7 3.4V95l38.5 47.5h1.8v-42.2c0-2.7.2-4.7.5-6s.9-2.4 1.7-3.3c1.5-1.5 3.7-2.3 6.4-2.3v-.9h-18.9Z"/><path class="cls-3" d="M125.6 131.7c0-.2-.2-.4-.3-.7-.3-.6-.4-1-.4-1-.4-1-18.5-46.7-18.5-46.7h-1.6L89.4 125c-1.4 3.6-2.5 6.2-3.4 8s-1.8 3.2-2.6 4.4c-1.1 1.4-2.2 2.4-3.3 3.1-1.1.6-2.4 1-3.9 1.1v1h19v-1c-1.7-.1-3.1-.6-4.2-1.3-.8-.6-1.4-1.3-1.9-2.2s-.7-1.8-.7-2.8c0-1.7.6-4.2 1.9-7.2l1.1-2.6 2.5-6.5 8.7-22.2 9.1 22.2 3.7 8.2c12.6 34.3 46.1 24.9 46.1 24.9-25.2 2-31.1-10.1-35.8-20.2v-.2Z"/><path d="m104.7 83.2 19.7 50.5c10.2 23.8 37.1 18.2 37.1 18.2-25.2 2-30.2-10.2-35-20.3 0-.2-19.3-48.4-19.3-48.4h-2.5" style="fill:#c6c7c8"/></g></g></svg>